# xmcd
#
# Track frame offsets: 
#        150
#        14822
#        30213
#        50623
#
# Disc length: 1016 seconds
#
# Revision: 0
# Processed by: cddbd v1.5.2PL0 Copyright (c) Steve Scherf et al.
# Submitted via: ExactAudioCopy v1.0b3
#
DISCID=2a03f604
DTITLE=Felix Project - Soviet Song
DYEAR=1900
DGENRE=
TTITLE0=Soviet Song (Radio Edit)
TTITLE1=Lonely (Mallorca Radio Edit)
TTITLE2=Lonely (Original)
TTITLE3=Soviet Song (Xtd)
EXTD=
EXTT0=
EXTT1=
EXTT2=
EXTT3=
PLAYORDER=
